<mxfile host="Electron" agent="Mozilla/5.0 (Windows NT 10.0; Win64; x64) AppleWebKit/537.36 (KHTML, like Gecko) draw.io/24.7.17 Chrome/128.0.6613.36 Electron/32.0.1 Safari/537.36" version="24.7.17">
  <diagram id="C5RBs43oDa-KdzZeNtuy" name="Page-1">
    <mxGraphModel dx="1000" dy="683" grid="1" gridSize="10" guides="1" tooltips="1" connect="1" arrows="1" fold="1" page="1" pageScale="1" pageWidth="827" pageHeight="1169" math="0" shadow="0">
      <root>
        <mxCell id="WIyWlLk6GJQsqaUBKTNV-0" />
        <mxCell id="WIyWlLk6GJQsqaUBKTNV-1" parent="WIyWlLk6GJQsqaUBKTNV-0" />
        <mxCell id="WIyWlLk6GJQsqaUBKTNV-2" value="" style="rounded=0;html=1;jettySize=auto;orthogonalLoop=1;fontSize=11;endArrow=block;endFill=0;endSize=8;strokeWidth=1;shadow=0;labelBackgroundColor=none;edgeStyle=orthogonalEdgeStyle;entryX=0.5;entryY=0;entryDx=0;entryDy=0;" parent="WIyWlLk6GJQsqaUBKTNV-1" source="WIyWlLk6GJQsqaUBKTNV-3" target="p6xq7j2Yl2noG7rsI-vV-3" edge="1">
          <mxGeometry relative="1" as="geometry">
            <mxPoint x="440" y="201" as="targetPoint" />
          </mxGeometry>
        </mxCell>
        <mxCell id="WIyWlLk6GJQsqaUBKTNV-3" value="Create project directory" style="rounded=1;whiteSpace=wrap;html=1;fontSize=12;glass=0;strokeWidth=1;shadow=0;" parent="WIyWlLk6GJQsqaUBKTNV-1" vertex="1">
          <mxGeometry x="380" y="111" width="120" height="40" as="geometry" />
        </mxCell>
        <mxCell id="WIyWlLk6GJQsqaUBKTNV-4" value="" style="rounded=0;html=1;jettySize=auto;orthogonalLoop=1;fontSize=11;endArrow=block;endFill=0;endSize=8;strokeWidth=1;shadow=0;labelBackgroundColor=none;edgeStyle=orthogonalEdgeStyle;exitX=0.5;exitY=1;exitDx=0;exitDy=0;entryX=0.5;entryY=0;entryDx=0;entryDy=0;" parent="WIyWlLk6GJQsqaUBKTNV-1" source="p6xq7j2Yl2noG7rsI-vV-3" target="WIyWlLk6GJQsqaUBKTNV-7" edge="1">
          <mxGeometry x="1" y="10" relative="1" as="geometry">
            <mxPoint x="-10" y="9" as="offset" />
            <mxPoint x="440" y="281" as="sourcePoint" />
            <mxPoint x="440" y="321" as="targetPoint" />
          </mxGeometry>
        </mxCell>
        <mxCell id="WIyWlLk6GJQsqaUBKTNV-7" value="Export to HyDAMO" style="rounded=1;whiteSpace=wrap;html=1;fontSize=12;glass=0;strokeWidth=1;shadow=0;" parent="WIyWlLk6GJQsqaUBKTNV-1" vertex="1">
          <mxGeometry x="380" y="251" width="120" height="40" as="geometry" />
        </mxCell>
        <mxCell id="WIyWlLk6GJQsqaUBKTNV-8" value="" style="rounded=0;html=1;jettySize=auto;orthogonalLoop=1;fontSize=11;endArrow=block;endFill=0;endSize=8;strokeWidth=1;shadow=0;labelBackgroundColor=none;edgeStyle=orthogonalEdgeStyle;exitX=0.5;exitY=1;exitDx=0;exitDy=0;entryX=0.5;entryY=0;entryDx=0;entryDy=0;" parent="WIyWlLk6GJQsqaUBKTNV-1" source="WIyWlLk6GJQsqaUBKTNV-7" target="WIyWlLk6GJQsqaUBKTNV-11" edge="1">
          <mxGeometry x="0.3333" y="20" relative="1" as="geometry">
            <mxPoint as="offset" />
            <mxPoint x="440" y="401" as="sourcePoint" />
            <mxPoint x="580" y="301" as="targetPoint" />
          </mxGeometry>
        </mxCell>
        <mxCell id="p6xq7j2Yl2noG7rsI-vV-8" value="" style="edgeStyle=orthogonalEdgeStyle;rounded=0;orthogonalLoop=1;jettySize=auto;html=1;" parent="WIyWlLk6GJQsqaUBKTNV-1" source="WIyWlLk6GJQsqaUBKTNV-11" target="p6xq7j2Yl2noG7rsI-vV-7" edge="1">
          <mxGeometry relative="1" as="geometry" />
        </mxCell>
        <mxCell id="WIyWlLk6GJQsqaUBKTNV-11" value="Fill missing values" style="rounded=1;whiteSpace=wrap;html=1;fontSize=12;glass=0;strokeWidth=1;shadow=0;" parent="WIyWlLk6GJQsqaUBKTNV-1" vertex="1">
          <mxGeometry x="380" y="321" width="120" height="40" as="geometry" />
        </mxCell>
        <mxCell id="p6xq7j2Yl2noG7rsI-vV-5" value="" style="edgeStyle=orthogonalEdgeStyle;rounded=0;orthogonalLoop=1;jettySize=auto;html=1;" parent="WIyWlLk6GJQsqaUBKTNV-1" source="p6xq7j2Yl2noG7rsI-vV-0" target="p6xq7j2Yl2noG7rsI-vV-1" edge="1">
          <mxGeometry relative="1" as="geometry" />
        </mxCell>
        <mxCell id="p6xq7j2Yl2noG7rsI-vV-0" value="Choose existing project directory" style="rounded=1;whiteSpace=wrap;html=1;fontSize=12;glass=0;strokeWidth=1;shadow=0;" parent="WIyWlLk6GJQsqaUBKTNV-1" vertex="1">
          <mxGeometry x="80" y="316" width="120" height="40" as="geometry" />
        </mxCell>
        <mxCell id="p6xq7j2Yl2noG7rsI-vV-1" value="Project &lt;br&gt;status" style="shape=internalStorage;whiteSpace=wrap;html=1;backgroundOutline=1;" parent="WIyWlLk6GJQsqaUBKTNV-1" vertex="1">
          <mxGeometry x="250" y="111" width="80" height="450" as="geometry" />
        </mxCell>
        <mxCell id="p6xq7j2Yl2noG7rsI-vV-2" value="" style="endArrow=classic;html=1;rounded=0;exitX=0;exitY=0.5;exitDx=0;exitDy=0;entryX=0.991;entryY=0.201;entryDx=0;entryDy=0;entryPerimeter=0;" parent="WIyWlLk6GJQsqaUBKTNV-1" source="p6xq7j2Yl2noG7rsI-vV-3" target="p6xq7j2Yl2noG7rsI-vV-1" edge="1">
          <mxGeometry width="50" height="50" relative="1" as="geometry">
            <mxPoint x="300" y="381" as="sourcePoint" />
            <mxPoint x="340" y="210" as="targetPoint" />
          </mxGeometry>
        </mxCell>
        <mxCell id="p6xq7j2Yl2noG7rsI-vV-3" value="Create model extent" style="rounded=1;whiteSpace=wrap;html=1;fontSize=12;glass=0;strokeWidth=1;shadow=0;" parent="WIyWlLk6GJQsqaUBKTNV-1" vertex="1">
          <mxGeometry x="380" y="181" width="120" height="40" as="geometry" />
        </mxCell>
        <mxCell id="p6xq7j2Yl2noG7rsI-vV-4" value="" style="endArrow=classic;html=1;rounded=0;exitX=0;exitY=0.5;exitDx=0;exitDy=0;entryX=0.991;entryY=0.357;entryDx=0;entryDy=0;entryPerimeter=0;" parent="WIyWlLk6GJQsqaUBKTNV-1" source="WIyWlLk6GJQsqaUBKTNV-7" target="p6xq7j2Yl2noG7rsI-vV-1" edge="1">
          <mxGeometry width="50" height="50" relative="1" as="geometry">
            <mxPoint x="390" y="381" as="sourcePoint" />
            <mxPoint x="350" y="281" as="targetPoint" />
          </mxGeometry>
        </mxCell>
        <mxCell id="p6xq7j2Yl2noG7rsI-vV-6" value="" style="endArrow=classic;html=1;rounded=0;exitX=0;exitY=0.5;exitDx=0;exitDy=0;" parent="WIyWlLk6GJQsqaUBKTNV-1" source="WIyWlLk6GJQsqaUBKTNV-11" edge="1">
          <mxGeometry width="50" height="50" relative="1" as="geometry">
            <mxPoint x="400" y="421" as="sourcePoint" />
            <mxPoint x="332" y="341" as="targetPoint" />
          </mxGeometry>
        </mxCell>
        <mxCell id="p6xq7j2Yl2noG7rsI-vV-10" value="" style="edgeStyle=orthogonalEdgeStyle;rounded=0;orthogonalLoop=1;jettySize=auto;html=1;" parent="WIyWlLk6GJQsqaUBKTNV-1" source="p6xq7j2Yl2noG7rsI-vV-7" target="p6xq7j2Yl2noG7rsI-vV-9" edge="1">
          <mxGeometry relative="1" as="geometry" />
        </mxCell>
        <mxCell id="p6xq7j2Yl2noG7rsI-vV-7" value="HyDAMO Validation" style="rounded=1;whiteSpace=wrap;html=1;fontSize=12;glass=0;strokeWidth=1;shadow=0;" parent="WIyWlLk6GJQsqaUBKTNV-1" vertex="1">
          <mxGeometry x="380" y="391" width="120" height="40" as="geometry" />
        </mxCell>
        <mxCell id="p6xq7j2Yl2noG7rsI-vV-13" value="" style="edgeStyle=orthogonalEdgeStyle;rounded=0;orthogonalLoop=1;jettySize=auto;html=1;" parent="WIyWlLk6GJQsqaUBKTNV-1" source="p6xq7j2Yl2noG7rsI-vV-9" target="p6xq7j2Yl2noG7rsI-vV-12" edge="1">
          <mxGeometry relative="1" as="geometry" />
        </mxCell>
        <mxCell id="p6xq7j2Yl2noG7rsI-vV-9" value="Expert judgement choices" style="whiteSpace=wrap;html=1;rounded=1;glass=0;strokeWidth=1;shadow=0;" parent="WIyWlLk6GJQsqaUBKTNV-1" vertex="1">
          <mxGeometry x="380" y="461" width="120" height="40" as="geometry" />
        </mxCell>
        <mxCell id="p6xq7j2Yl2noG7rsI-vV-11" value="" style="endArrow=classic;html=1;rounded=0;exitX=1;exitY=0.5;exitDx=0;exitDy=0;entryX=1;entryY=0.75;entryDx=0;entryDy=0;" parent="WIyWlLk6GJQsqaUBKTNV-1" source="p6xq7j2Yl2noG7rsI-vV-9" target="p6xq7j2Yl2noG7rsI-vV-7" edge="1">
          <mxGeometry width="50" height="50" relative="1" as="geometry">
            <mxPoint x="400" y="421" as="sourcePoint" />
            <mxPoint x="450" y="371" as="targetPoint" />
            <Array as="points">
              <mxPoint x="540" y="481" />
              <mxPoint x="540" y="421" />
            </Array>
          </mxGeometry>
        </mxCell>
        <mxCell id="p6xq7j2Yl2noG7rsI-vV-12" value="Convert to base schematisation" style="whiteSpace=wrap;html=1;rounded=1;glass=0;strokeWidth=1;shadow=0;" parent="WIyWlLk6GJQsqaUBKTNV-1" vertex="1">
          <mxGeometry x="380" y="521" width="120" height="40" as="geometry" />
        </mxCell>
        <mxCell id="p6xq7j2Yl2noG7rsI-vV-15" value="" style="endArrow=classic;html=1;rounded=0;exitX=0;exitY=0.5;exitDx=0;exitDy=0;entryX=0.986;entryY=0.667;entryDx=0;entryDy=0;entryPerimeter=0;" parent="WIyWlLk6GJQsqaUBKTNV-1" source="p6xq7j2Yl2noG7rsI-vV-7" target="p6xq7j2Yl2noG7rsI-vV-1" edge="1">
          <mxGeometry width="50" height="50" relative="1" as="geometry">
            <mxPoint x="400" y="421" as="sourcePoint" />
            <mxPoint x="331" y="410" as="targetPoint" />
          </mxGeometry>
        </mxCell>
        <mxCell id="NbJrGAQdFFc77ToFxVxR-2" value="" style="endArrow=classic;html=1;rounded=0;exitX=0;exitY=0.5;exitDx=0;exitDy=0;entryX=0.986;entryY=0.822;entryDx=0;entryDy=0;entryPerimeter=0;" edge="1" parent="WIyWlLk6GJQsqaUBKTNV-1" source="p6xq7j2Yl2noG7rsI-vV-9" target="p6xq7j2Yl2noG7rsI-vV-1">
          <mxGeometry width="50" height="50" relative="1" as="geometry">
            <mxPoint x="340" y="540" as="sourcePoint" />
            <mxPoint x="390" y="490" as="targetPoint" />
          </mxGeometry>
        </mxCell>
        <mxCell id="NbJrGAQdFFc77ToFxVxR-4" value="Project directory" style="shape=cylinder3;whiteSpace=wrap;html=1;boundedLbl=1;backgroundOutline=1;size=15;strokeColor=#B3B3B3;sketch=1;curveFitting=1;jiggle=2;fontColor=#B3B3B3;" vertex="1" parent="WIyWlLk6GJQsqaUBKTNV-1">
          <mxGeometry x="740" y="111" width="60" height="440" as="geometry" />
        </mxCell>
        <mxCell id="NbJrGAQdFFc77ToFxVxR-7" value="" style="endArrow=classic;html=1;rounded=0;exitX=1;exitY=0.5;exitDx=0;exitDy=0;entryX=0;entryY=0.5;entryDx=0;entryDy=0;sketch=1;curveFitting=1;jiggle=2;strokeColor=#B3B3B3;" edge="1" parent="WIyWlLk6GJQsqaUBKTNV-1" source="p6xq7j2Yl2noG7rsI-vV-3" target="NbJrGAQdFFc77ToFxVxR-8">
          <mxGeometry width="50" height="50" relative="1" as="geometry">
            <mxPoint x="550" y="210" as="sourcePoint" />
            <mxPoint x="600" y="160" as="targetPoint" />
          </mxGeometry>
        </mxCell>
        <mxCell id="NbJrGAQdFFc77ToFxVxR-8" value="Model extent" style="shape=document;whiteSpace=wrap;html=1;boundedLbl=1;strokeColor=#B3B3B3;sketch=1;curveFitting=1;jiggle=2;fontColor=#B3B3B3;" vertex="1" parent="WIyWlLk6GJQsqaUBKTNV-1">
          <mxGeometry x="580" y="173" width="80" height="56" as="geometry" />
        </mxCell>
        <mxCell id="NbJrGAQdFFc77ToFxVxR-9" value="" style="endArrow=classic;html=1;rounded=0;exitX=1;exitY=0.5;exitDx=0;exitDy=0;entryX=0;entryY=0.5;entryDx=0;entryDy=0;sketch=1;curveFitting=1;jiggle=2;strokeColor=#B3B3B3;" edge="1" parent="WIyWlLk6GJQsqaUBKTNV-1">
          <mxGeometry width="50" height="50" relative="1" as="geometry">
            <mxPoint x="660" y="200.41" as="sourcePoint" />
            <mxPoint x="740" y="200.41" as="targetPoint" />
          </mxGeometry>
        </mxCell>
        <mxCell id="NbJrGAQdFFc77ToFxVxR-14" value="" style="endArrow=classic;html=1;rounded=0;exitX=1;exitY=0.5;exitDx=0;exitDy=0;entryX=0;entryY=0.5;entryDx=0;entryDy=0;sketch=1;curveFitting=1;jiggle=2;strokeColor=#B3B3B3;" edge="1" parent="WIyWlLk6GJQsqaUBKTNV-1" target="NbJrGAQdFFc77ToFxVxR-15">
          <mxGeometry width="50" height="50" relative="1" as="geometry">
            <mxPoint x="501" y="270" as="sourcePoint" />
            <mxPoint x="601" y="229" as="targetPoint" />
          </mxGeometry>
        </mxCell>
        <mxCell id="NbJrGAQdFFc77ToFxVxR-15" value="&lt;font color=&quot;#b3b3b3&quot;&gt;HyDAMO gpkg&lt;/font&gt;" style="shape=document;whiteSpace=wrap;html=1;boundedLbl=1;strokeColor=#B3B3B3;sketch=1;curveFitting=1;jiggle=2;" vertex="1" parent="WIyWlLk6GJQsqaUBKTNV-1">
          <mxGeometry x="529" y="242" width="80" height="56" as="geometry" />
        </mxCell>
        <mxCell id="NbJrGAQdFFc77ToFxVxR-16" value="" style="endArrow=classic;html=1;rounded=0;exitX=1;exitY=0.5;exitDx=0;exitDy=0;entryX=0;entryY=0.5;entryDx=0;entryDy=0;sketch=1;curveFitting=1;jiggle=2;strokeColor=#B3B3B3;" edge="1" parent="WIyWlLk6GJQsqaUBKTNV-1">
          <mxGeometry width="50" height="50" relative="1" as="geometry">
            <mxPoint x="661" y="269.40999999999997" as="sourcePoint" />
            <mxPoint x="741" y="269.40999999999997" as="targetPoint" />
          </mxGeometry>
        </mxCell>
        <mxCell id="NbJrGAQdFFc77ToFxVxR-18" value="&lt;font color=&quot;#b3b3b3&quot;&gt;Validation results&lt;/font&gt;" style="shape=document;whiteSpace=wrap;html=1;boundedLbl=1;strokeColor=#B3B3B3;sketch=1;curveFitting=1;jiggle=2;" vertex="1" parent="WIyWlLk6GJQsqaUBKTNV-1">
          <mxGeometry x="600" y="251" width="80" height="56" as="geometry" />
        </mxCell>
        <mxCell id="NbJrGAQdFFc77ToFxVxR-19" value="Update HyDAMO &lt;br&gt;gpkg" style="shape=parallelogram;perimeter=parallelogramPerimeter;whiteSpace=wrap;html=1;fixedSize=1;strokeColor=#B3B3B3;sketch=1;curveFitting=1;jiggle=2;fontColor=#B3B3B3;" vertex="1" parent="WIyWlLk6GJQsqaUBKTNV-1">
          <mxGeometry x="575" y="316.5" width="90" height="49" as="geometry" />
        </mxCell>
        <mxCell id="NbJrGAQdFFc77ToFxVxR-20" value="" style="endArrow=classic;html=1;rounded=0;entryX=0;entryY=0.5;entryDx=0;entryDy=0;sketch=1;curveFitting=1;jiggle=2;strokeColor=#B3B3B3;" edge="1" parent="WIyWlLk6GJQsqaUBKTNV-1" target="NbJrGAQdFFc77ToFxVxR-19">
          <mxGeometry width="50" height="50" relative="1" as="geometry">
            <mxPoint x="500" y="340" as="sourcePoint" />
            <mxPoint x="560" y="340" as="targetPoint" />
          </mxGeometry>
        </mxCell>
        <mxCell id="NbJrGAQdFFc77ToFxVxR-21" value="" style="endArrow=classic;html=1;rounded=0;exitX=1;exitY=0.5;exitDx=0;exitDy=0;entryX=-0.054;entryY=0.525;entryDx=0;entryDy=0;entryPerimeter=0;sketch=1;curveFitting=1;jiggle=2;strokeColor=#B3B3B3;" edge="1" parent="WIyWlLk6GJQsqaUBKTNV-1" source="NbJrGAQdFFc77ToFxVxR-19" target="NbJrGAQdFFc77ToFxVxR-4">
          <mxGeometry width="50" height="50" relative="1" as="geometry">
            <mxPoint x="610" y="500" as="sourcePoint" />
            <mxPoint x="660" y="450" as="targetPoint" />
          </mxGeometry>
        </mxCell>
        <mxCell id="NbJrGAQdFFc77ToFxVxR-23" value="" style="endArrow=classic;html=1;rounded=0;exitX=1;exitY=0.25;exitDx=0;exitDy=0;sketch=1;curveFitting=1;jiggle=2;strokeColor=#B3B3B3;" edge="1" parent="WIyWlLk6GJQsqaUBKTNV-1" source="p6xq7j2Yl2noG7rsI-vV-7">
          <mxGeometry width="50" height="50" relative="1" as="geometry">
            <mxPoint x="510" y="410.72" as="sourcePoint" />
            <mxPoint x="590" y="401" as="targetPoint" />
          </mxGeometry>
        </mxCell>
        <mxCell id="NbJrGAQdFFc77ToFxVxR-24" value="" style="endArrow=classic;html=1;rounded=0;exitX=0.988;exitY=0.365;exitDx=0;exitDy=0;exitPerimeter=0;sketch=1;curveFitting=1;jiggle=2;strokeColor=#B3B3B3;" edge="1" parent="WIyWlLk6GJQsqaUBKTNV-1">
          <mxGeometry width="50" height="50" relative="1" as="geometry">
            <mxPoint x="669.04" y="400.44000000000005" as="sourcePoint" />
            <mxPoint x="740" y="400" as="targetPoint" />
          </mxGeometry>
        </mxCell>
        <mxCell id="NbJrGAQdFFc77ToFxVxR-25" value="Validation results" style="shape=document;whiteSpace=wrap;html=1;boundedLbl=1;strokeColor=#B3B3B3;sketch=1;curveFitting=1;jiggle=2;fontColor=#B3B3B3;" vertex="1" parent="WIyWlLk6GJQsqaUBKTNV-1">
          <mxGeometry x="590" y="375" width="80" height="56" as="geometry" />
        </mxCell>
        <mxCell id="NbJrGAQdFFc77ToFxVxR-26" value="Update HyDAMO &lt;br&gt;gpkg" style="shape=parallelogram;perimeter=parallelogramPerimeter;whiteSpace=wrap;html=1;fixedSize=1;strokeColor=#B3B3B3;sketch=1;curveFitting=1;jiggle=2;fontColor=#B3B3B3;" vertex="1" parent="WIyWlLk6GJQsqaUBKTNV-1">
          <mxGeometry x="575" y="472" width="90" height="49" as="geometry" />
        </mxCell>
        <mxCell id="NbJrGAQdFFc77ToFxVxR-27" value="" style="endArrow=classic;html=1;rounded=0;entryX=0;entryY=0.5;entryDx=0;entryDy=0;sketch=1;curveFitting=1;jiggle=2;strokeColor=#B3B3B3;" edge="1" parent="WIyWlLk6GJQsqaUBKTNV-1" target="NbJrGAQdFFc77ToFxVxR-26">
          <mxGeometry width="50" height="50" relative="1" as="geometry">
            <mxPoint x="500" y="495.5" as="sourcePoint" />
            <mxPoint x="560" y="495.5" as="targetPoint" />
          </mxGeometry>
        </mxCell>
        <mxCell id="NbJrGAQdFFc77ToFxVxR-28" value="" style="endArrow=classic;html=1;rounded=0;exitX=1;exitY=0.5;exitDx=0;exitDy=0;entryX=-0.054;entryY=0.525;entryDx=0;entryDy=0;entryPerimeter=0;sketch=1;curveFitting=1;jiggle=2;strokeColor=#B3B3B3;" edge="1" parent="WIyWlLk6GJQsqaUBKTNV-1" source="NbJrGAQdFFc77ToFxVxR-26">
          <mxGeometry width="50" height="50" relative="1" as="geometry">
            <mxPoint x="610" y="655.5" as="sourcePoint" />
            <mxPoint x="737" y="497.5" as="targetPoint" />
          </mxGeometry>
        </mxCell>
        <mxCell id="NbJrGAQdFFc77ToFxVxR-30" value="" style="endArrow=classic;html=1;rounded=0;exitX=1;exitY=0.5;exitDx=0;exitDy=0;entryX=0;entryY=0.5;entryDx=0;entryDy=0;sketch=1;curveFitting=1;jiggle=2;strokeColor=#B3B3B3;" edge="1" parent="WIyWlLk6GJQsqaUBKTNV-1" target="NbJrGAQdFFc77ToFxVxR-31">
          <mxGeometry width="50" height="50" relative="1" as="geometry">
            <mxPoint x="500" y="541" as="sourcePoint" />
            <mxPoint x="600" y="500" as="targetPoint" />
          </mxGeometry>
        </mxCell>
        <mxCell id="NbJrGAQdFFc77ToFxVxR-31" value="3Di Schematisatie" style="shape=document;whiteSpace=wrap;html=1;boundedLbl=1;strokeColor=#B3B3B3;sketch=1;curveFitting=1;jiggle=2;fontColor=#B3B3B3;" vertex="1" parent="WIyWlLk6GJQsqaUBKTNV-1">
          <mxGeometry x="580" y="540" width="80" height="56" as="geometry" />
        </mxCell>
        <mxCell id="NbJrGAQdFFc77ToFxVxR-32" value="" style="endArrow=classic;html=1;rounded=0;exitX=1;exitY=0.5;exitDx=0;exitDy=0;entryX=0;entryY=0.5;entryDx=0;entryDy=0;sketch=1;curveFitting=1;jiggle=2;strokeColor=#B3B3B3;" edge="1" parent="WIyWlLk6GJQsqaUBKTNV-1" source="NbJrGAQdFFc77ToFxVxR-31">
          <mxGeometry width="50" height="50" relative="1" as="geometry">
            <mxPoint x="660" y="540.41" as="sourcePoint" />
            <mxPoint x="740" y="540.41" as="targetPoint" />
          </mxGeometry>
        </mxCell>
        <mxCell id="NbJrGAQdFFc77ToFxVxR-33" value="Create &lt;br&gt;project dir" style="shape=parallelogram;perimeter=parallelogramPerimeter;whiteSpace=wrap;html=1;fixedSize=1;strokeColor=#B3B3B3;sketch=1;curveFitting=1;jiggle=2;fontColor=#B3B3B3;" vertex="1" parent="WIyWlLk6GJQsqaUBKTNV-1">
          <mxGeometry x="575" y="106.5" width="90" height="49" as="geometry" />
        </mxCell>
        <mxCell id="NbJrGAQdFFc77ToFxVxR-34" value="" style="endArrow=classic;html=1;rounded=0;entryX=0;entryY=0.5;entryDx=0;entryDy=0;sketch=1;curveFitting=1;jiggle=2;strokeColor=#B3B3B3;" edge="1" parent="WIyWlLk6GJQsqaUBKTNV-1" target="NbJrGAQdFFc77ToFxVxR-33">
          <mxGeometry width="50" height="50" relative="1" as="geometry">
            <mxPoint x="500" y="130" as="sourcePoint" />
            <mxPoint x="560" y="130" as="targetPoint" />
          </mxGeometry>
        </mxCell>
        <mxCell id="NbJrGAQdFFc77ToFxVxR-35" value="" style="endArrow=classic;html=1;rounded=0;exitX=1;exitY=0.5;exitDx=0;exitDy=0;entryX=-0.054;entryY=0.525;entryDx=0;entryDy=0;entryPerimeter=0;sketch=1;curveFitting=1;jiggle=2;strokeColor=#B3B3B3;" edge="1" parent="WIyWlLk6GJQsqaUBKTNV-1" source="NbJrGAQdFFc77ToFxVxR-33">
          <mxGeometry width="50" height="50" relative="1" as="geometry">
            <mxPoint x="610" y="290" as="sourcePoint" />
            <mxPoint x="737" y="132" as="targetPoint" />
          </mxGeometry>
        </mxCell>
      </root>
    </mxGraphModel>
  </diagram>
</mxfile>
